<svg width="32.000000" height="32.000000" viewBox="0 0 32 32" fill="none" xmlns="http://www.w3.org/2000/svg" xmlns:xlink="http://www.w3.org/1999/xlink">
	<desc>
			Created with Pixso.
	</desc>
	<defs>
		<clipPath id="clip2_65">
			<rect id="IMAGE" width="32.000000" height="32.000000" fill="white" fill-opacity="0"/>
		</clipPath>
	</defs>
	<g clip-path="url(#clip2_65)">
		<path id="Vector" d="M15.9994 0.0527344C7.19006 0.0527344 0.0483398 7.19427 0.0483398 16.0036C0.0483398 24.8133 7.19006 31.9543 15.9994 31.9543C24.8097 31.9543 31.9506 24.8133 31.9506 16.0036C31.9506 7.19482 24.8097 0.0534668 15.9992 0.0534668L15.9994 0.0527344ZM23.3144 23.0584C23.0287 23.527 22.4154 23.6756 21.9468 23.388C18.2017 21.1004 13.487 20.5823 7.93463 21.8508C7.3996 21.9727 6.86621 21.6375 6.74432 21.1023C6.62189 20.567 6.95575 20.0337 7.49213 19.9118C13.5683 18.523 18.7803 19.1213 22.9849 21.6908C23.4535 21.9784 23.6021 22.5899 23.3144 23.0584ZM25.2668 18.7146C24.9068 19.3004 24.1411 19.4851 23.5563 19.1251C19.2687 16.4891 12.7329 15.7259 7.6615 17.2653C7.00378 17.464 6.30908 17.0933 6.1095 16.4367C5.91138 15.779 6.28223 15.0857 6.93884 14.8857C12.7318 13.128 19.9335 13.9794 24.8573 17.0051C25.4421 17.3651 25.6268 18.1308 25.2668 18.7148L25.2668 18.7146ZM25.4344 14.192C20.2935 11.1384 11.8116 10.8577 6.9032 12.3474C6.11499 12.5864 5.28149 12.1415 5.0426 11.3533C4.80377 10.5647 5.24835 9.73175 6.03711 9.49219C11.6716 7.78168 21.0382 8.11218 26.9571 11.6259C27.6676 12.0466 27.9 12.9623 27.479 13.6703C27.06 14.3792 26.1419 14.6129 25.4352 14.192L25.4344 14.192Z" fill="#1ED760" fill-opacity="1.000000" fill-rule="nonzero"/>
	</g>
</svg>
