<svg width="32.000000" height="32.000000" viewBox="0 0 32 32" fill="none" xmlns="http://www.w3.org/2000/svg" xmlns:xlink="http://www.w3.org/1999/xlink">
	<desc>
			Created with Pixso.
	</desc>
	<defs>
		<clipPath id="clip2_26">
			<rect id="IMAGE" width="32.000000" height="32.000000" fill="white" fill-opacity="0"/>
		</clipPath>
	</defs>
	<g clip-path="url(#clip2_26)">
		<path id="Vector" d="M29.6592 16C29.6592 23.732 23.3912 30 15.6592 30C7.92719 30 1.65918 23.732 1.65918 16C1.65918 8.26801 7.92719 2 15.6592 2C23.3912 2 29.6592 8.26801 29.6592 16Z" fill="#FFFFFF" fill-opacity="1.000000" fill-rule="evenodd"/>
		<path id="Vector" d="M16.1863 0C7.6106 0 0.65918 7.16333 0.65918 16C0.65918 24.8366 7.6106 32 16.1863 32C24.7621 32 31.7135 24.8366 31.7135 16C31.7135 7.16333 24.7621 0 16.1863 0ZM20.9963 16.148C20.9963 13.4927 18.9072 11.3397 16.3299 11.3397C13.7531 11.3397 11.664 13.4923 11.664 16.148C11.664 18.8033 13.7531 20.9559 16.3299 20.9559L16.3299 23.7036C12.2806 23.7036 8.9975 20.321 8.9975 16.148C8.9975 11.9751 12.2802 8.59241 16.3299 8.59241C20.3797 8.59241 23.6625 11.9751 23.6625 16.148L20.9963 16.148ZM25.4955 16.148C25.4955 10.9321 21.3922 6.70361 16.3299 6.70361C11.2682 6.70361 7.16486 10.9321 7.16486 16.148C7.16486 21.3638 11.2682 25.592 16.3299 25.592L16.3299 28.7404C9.58099 28.7404 4.10944 23.1024 4.10944 16.148C4.10944 9.1933 9.58099 3.5556 16.3299 3.5556C23.0793 3.5556 28.5506 9.1933 28.5506 16.148L25.4955 16.148Z" fill="#F43E37" fill-opacity="1.000000" fill-rule="nonzero"/>
	</g>
</svg>
