<svg width="32.000000" height="32.000000" viewBox="0 0 32 32" fill="none" xmlns="http://www.w3.org/2000/svg" xmlns:xlink="http://www.w3.org/1999/xlink">
	<desc>
			Created with Pixso.
	</desc>
	<defs>
		<clipPath id="clip2_33">
			<rect id="IMAGE" width="32.000000" height="32.000000" fill="white" fill-opacity="0"/>
		</clipPath>
		<linearGradient id="paint_linear_2_35_0" x1="15.829800" y1="0.000000" x2="15.829800" y2="32.000000" gradientUnits="userSpaceOnUse">
			<stop stop-color="#FF7602"/>
			<stop offset="1.000000" stop-color="#FF3502"/>
		</linearGradient>
	</defs>
	<g clip-path="url(#clip2_33)">
		<path id="Vector" d="M31.6593 16C31.6593 24.8889 24.5267 32 15.8923 32C7.25806 32 0.000244141 24.8889 0.000244141 16C0.000244141 7.11115 7.13293 0 15.7672 0C24.4015 0 31.6593 7.11115 31.6593 16Z" fill="url(#paint_linear_2_35_0)" fill-opacity="1.000000" fill-rule="nonzero"/>
		<path id="Vector" d="M4.67004 17.069C4.67615 17.0161 4.71368 16.9789 4.76093 16.9789C4.80646 16.9789 4.84418 17.0161 4.85126 17.0687L5.04761 18.3457L4.85126 19.601C4.84399 19.6536 4.8067 19.6902 4.76093 19.6902C4.71362 19.6902 4.67615 19.6533 4.67004 19.6005L4.50439 18.3457L4.67004 17.069Z" fill="#FFFFFF" fill-opacity="1.000000" fill-rule="nonzero"/>
		<path id="Vector" d="M5.59839 16.1888C5.64618 16.1888 5.68488 16.2267 5.69269 16.2815L5.94574 18.3458L5.69244 20.3649C5.68463 20.4196 5.64587 20.4576 5.59839 20.4576C5.55017 20.4576 5.5105 20.4185 5.50415 20.3644L5.28149 18.3458L5.50415 16.2815C5.51074 16.2279 5.55042 16.1888 5.59839 16.1888Z" fill="#FFFFFF" fill-opacity="1.000000" fill-rule="nonzero"/>
		<path id="Vector" d="M9.03027 14.5498C9.03467 14.4534 9.11023 14.3774 9.2016 14.3774C9.29242 14.3774 9.36768 14.4534 9.37305 14.5498L9.57349 18.3476L9.37305 20.8022L9.37305 20.8015C9.36774 20.8977 9.29242 20.9736 9.2016 20.9736C9.11023 20.9736 9.03491 20.8979 9.03027 20.802L8.85303 18.3476L9.03027 14.5498Z" fill="#FFFFFF" fill-opacity="1.000000" fill-rule="nonzero"/>
		<path id="Vector" d="M7.25226 15.8302C7.25787 15.7543 7.31512 15.6975 7.38525 15.6975C7.45465 15.6975 7.5119 15.7543 7.51801 15.8297L7.74506 18.3466L7.51801 20.7812C7.5119 20.8566 7.45465 20.9135 7.38525 20.9135C7.31506 20.9135 7.25757 20.8566 7.25226 20.7812L7.05249 18.3466L7.25226 15.8302Z" fill="#FFFFFF" fill-opacity="1.000000" fill-rule="nonzero"/>
		<path id="Vector" d="M11.2565 20.7619C11.2519 20.8806 11.1598 20.9733 11.0466 20.9733C10.9325 20.9733 10.8401 20.8802 10.8365 20.7627L10.6824 18.3484L10.8365 13.2928C10.8403 13.1741 10.9326 13.0812 11.0468 13.0812C11.1601 13.0812 11.2522 13.1739 11.2568 13.2925L11.4305 18.3488L11.2565 20.7619Z" fill="#FFFFFF" fill-opacity="1.000000" fill-rule="nonzero"/>
		<path id="Vector" d="M15.1123 20.6944C15.1094 20.8545 14.9808 20.9848 14.8249 20.9848C14.6689 20.9848 14.5399 20.8545 14.5374 20.6958C14.5374 20.6958 14.429 18.3522 14.429 18.3484L14.5374 12.511C14.5398 12.3506 14.6687 12.2203 14.8249 12.2203C14.9808 12.2203 15.1096 12.3509 15.1123 12.5108L15.2336 18.3504L15.1123 20.6944Z" fill="#FFFFFF" fill-opacity="1.000000" fill-rule="nonzero"/>
		<path id="Vector" d="M13.1702 20.724C13.1665 20.8649 13.0571 20.9754 12.9214 20.9754C12.7848 20.9754 12.6755 20.8649 12.6725 20.7255L12.541 18.3495L12.6723 13.2563C12.6752 13.1154 12.7846 13.0051 12.9213 13.0051C13.0569 13.0051 13.1662 13.1154 13.1699 13.2563L13.3178 18.3492L13.1702 20.7257L13.1702 20.724Z" fill="#FFFFFF" fill-opacity="1.000000" fill-rule="nonzero"/>
		<path id="Vector" d="M8.44202 20.8012C8.43591 20.8875 8.37067 20.953 8.28998 20.953C8.20819 20.953 8.14319 20.8875 8.13776 20.8009L7.94946 18.3463L8.13776 16.0121C8.14288 15.9253 8.20819 15.8597 8.28998 15.8597C8.37091 15.8597 8.43616 15.9248 8.44202 16.011L8.65588 18.3463L8.44202 20.8012Z" fill="#FFFFFF" fill-opacity="1.000000" fill-rule="nonzero"/>
		<path id="Vector" d="M6.60156 20.7063C6.59473 20.7716 6.547 20.8188 6.48804 20.8188C6.4281 20.8188 6.38037 20.7713 6.37451 20.7059L6.16309 18.3461L6.37451 15.8969C6.38062 15.8317 6.42834 15.7842 6.48804 15.7842C6.547 15.7842 6.59473 15.8315 6.60181 15.8969L6.84174 18.3461L6.60156 20.7063Z" fill="#FFFFFF" fill-opacity="1.000000" fill-rule="nonzero"/>
		<path id="Vector" d="M13.6007 13.4426C13.6037 13.2903 13.7218 13.1714 13.8692 13.1714C14.0163 13.1714 14.1337 13.2903 14.1371 13.4421L14.2716 18.3499L14.1371 20.7111L14.1371 20.7091C14.1337 20.8613 14.0163 20.98 13.8692 20.98C13.7216 20.98 13.6037 20.8611 13.6007 20.7108L13.481 18.3497L13.6007 13.4426Z" fill="#FFFFFF" fill-opacity="1.000000" fill-rule="nonzero"/>
		<path id="Vector" d="M10.3115 20.7863C10.3066 20.8938 10.2226 20.9781 10.1208 20.9781C10.018 20.9781 9.93414 20.8938 9.93005 20.7873L9.76416 18.3483L9.92981 13.6816C9.93427 13.5742 10.018 13.4899 10.1208 13.4899C10.2226 13.4899 10.3064 13.5739 10.3115 13.6816L10.4986 18.3483L10.3115 20.7863Z" fill="#FFFFFF" fill-opacity="1.000000" fill-rule="nonzero"/>
		<path id="Vector" d="M12.2098 20.7478L12.2098 20.7475C12.2054 20.8764 12.1051 20.9777 11.9806 20.9777C11.8557 20.9777 11.7548 20.876 11.7514 20.7476L11.6084 18.3485L11.7512 13.1221C11.7545 12.9921 11.8554 12.8905 11.9806 12.8905C12.1051 12.8905 12.2059 12.9923 12.2098 13.1221L12.3706 18.3488L12.2098 20.7465L12.2098 20.7475C12.2098 20.7472 12.2098 20.747 12.2098 20.7468L12.2098 20.7478Z" fill="#FFFFFF" fill-opacity="1.000000" fill-rule="nonzero"/>
		<path id="Vector" d="M23.2915 15.5558C23.6233 15.4147 23.9875 15.3364 24.3692 15.3364C25.9077 15.3364 27.1549 16.6024 27.1549 18.164C27.1549 19.7255 25.9075 20.9914 24.369 20.9914C24.3192 20.9914 16.6534 20.9875 16.6463 20.9867C16.4799 20.9695 16.3477 20.8255 16.3455 20.6525L16.3455 11.6794C16.3475 11.5145 16.4035 11.4294 16.6137 11.3469C17.1547 11.1346 17.7674 11.009 18.3958 11.009C20.9643 11.009 23.0698 13.0078 23.2915 15.5558Z" fill="#FFFFFF" fill-opacity="1.000000" fill-rule="nonzero"/>
		<path id="Vector" d="M15.4687 11.982C15.4712 11.8108 15.6086 11.6714 15.7759 11.6714C15.9428 11.6714 16.0801 11.8108 16.0826 11.9816L16.2192 18.351L16.0826 20.6628L16.0826 20.66C16.0801 20.8314 15.9428 20.9705 15.7759 20.9705C15.6086 20.9705 15.4712 20.8314 15.469 20.6625L15.343 18.351L15.4687 11.982Z" fill="#FFFFFF" fill-opacity="1.000000" fill-rule="nonzero"/>
	</g>
</svg>
