<svg width="24.000000" height="24.000000" viewBox="0 0 24 24" fill="none" xmlns="http://www.w3.org/2000/svg" xmlns:xlink="http://www.w3.org/1999/xlink">
	<desc>
			Created with Pixso.
	</desc>
	<defs>
		<clipPath id="clip2_286">
			<rect id="IMAGE" width="24.000000" height="24.000000" fill="white" fill-opacity="0"/>
		</clipPath>
	</defs>
	<g clip-path="url(#clip2_286)">
		<path id="Vector" d="M19.86 4.52979C19.2577 3.8374 18.4573 3.34668 17.567 3.12354C16.6767 2.90088 15.7395 2.95703 14.8821 3.28418C14.0247 3.61133 13.2884 4.19434 12.773 4.95361C12.2575 5.71289 11.9877 6.6123 12 7.52979L12 8.52979C10.2426 8.5752 8.50127 8.18555 6.93101 7.39502C5.36074 6.60498 4.01032 5.43848 3 4C3 4 -1 13 8 17C5.94053 18.3979 3.48716 19.0986 1 19C10 24 21 19 21 7.5C21 7.21973 20.97 6.93994 20.92 6.66992C21.9406 5.66309 22.6608 4.39258 23 3C22.0424 3.67529 20.9821 4.19189 19.86 4.52979Z" stroke="#FFFFFF" stroke-opacity="1.000000" stroke-width="2.000000" stroke-linejoin="round"/>
	</g>
</svg>
