<svg width="32.000000" height="32.000000" viewBox="0 0 32 32" fill="none" xmlns="http://www.w3.org/2000/svg" xmlns:xlink="http://www.w3.org/1999/xlink">
	<desc>
			Created with Pixso.
	</desc>
	<defs>
		<clipPath id="clip2_30">
			<rect id="IMAGE" width="32.000000" height="32.000000" fill="white" fill-opacity="0"/>
		</clipPath>
		<linearGradient id="paint_linear_2_31_0" x1="16.000105" y1="0.000000" x2="16.000105" y2="32.000000" gradientUnits="userSpaceOnUse">
			<stop stop-color="#F452FF"/>
			<stop offset="1.000000" stop-color="#832BC1"/>
		</linearGradient>
	</defs>
	<g clip-path="url(#clip2_30)">
		<path id="Vector" d="M31.3672 27.7357C31.0561 28.5258 30.3384 29.6383 29.3205 30.4219C28.7329 30.8745 28.0313 31.3072 27.0676 31.5927C26.0403 31.8971 24.7749 32 23.2 32L8.80011 32C7.22534 32 5.95996 31.8971 4.93256 31.5927C3.96887 31.3072 3.2674 30.8745 2.67963 30.4219C1.66187 29.6382 0.94397 28.5258 0.632935 27.7357C0.00634766 26.1438 0 24.3376 0 23.2L0 8.79999C0 7.66241 0.00634766 5.8562 0.632935 4.26428C0.94397 3.47418 1.66174 2.36169 2.67963 1.57806C3.26727 1.12549 3.96887 0.69281 4.93256 0.407349C5.95984 0.102905 7.22522 0 8.80011 0L23.2002 0C24.7749 0 26.0403 0.102905 27.0677 0.407349C28.0314 0.69281 28.7329 1.12561 29.3206 1.57806C30.3384 2.36182 31.0563 3.47418 31.3673 4.26428C31.9939 5.8562 32.0003 7.66241 32.0003 8.79999L32.0003 23.2C32.0001 24.3375 31.9938 26.1437 31.3672 27.7357Z" fill="url(#paint_linear_2_31_0)" fill-opacity="1.000000" fill-rule="evenodd"/>
		<path id="Vector" d="M18.3209 18.3933C17.8407 17.8867 16.9973 17.5619 16.0016 17.5619C15.0059 17.5619 14.1625 17.8867 13.6823 18.3933C13.4318 18.6577 13.2993 18.9287 13.2575 19.3148C13.1767 20.0625 13.2221 20.7062 13.3097 21.7354C13.3931 22.7161 13.5516 24.024 13.7583 25.356C13.9055 26.3039 14.025 26.8155 14.1339 27.1819C14.3104 27.7756 14.97 28.2949 16.0016 28.2949C17.0331 28.2949 17.6928 27.7755 17.8693 27.1819C17.9781 26.8155 18.0977 26.3039 18.2448 25.356C18.4516 24.024 18.61 22.7161 18.6935 21.7354C18.7811 20.7061 18.8265 20.0623 18.7456 19.3148C18.7039 18.9289 18.5714 18.6577 18.3209 18.3933ZM13.3852 13.8822C13.3852 15.3285 14.5577 16.501 16.0041 16.501C17.4505 16.501 18.623 15.3285 18.623 13.8822C18.623 12.4358 17.4505 11.2633 16.0041 11.2633C14.5577 11.2633 13.3852 12.4358 13.3852 13.8822ZM15.9716 3.54706C9.84668 3.56445 4.82788 8.53339 4.75208 14.658C4.69055 19.6193 7.8576 23.8632 12.28 25.4188C12.3873 25.4565 12.4963 25.3674 12.4794 25.2549C12.4214 24.8696 12.3667 24.4825 12.3165 24.1019C12.2987 23.9674 12.213 23.8514 12.0887 23.7971C8.59332 22.27 6.15253 18.7644 6.19171 14.7037C6.24304 9.37476 10.5946 5.03033 15.9236 4.98724C21.3714 4.94324 25.8174 9.36218 25.8174 14.8C25.8174 18.82 23.3873 22.2826 19.9191 23.7975C19.7949 23.8518 19.7097 23.9681 19.692 24.1026C19.6418 24.483 19.5871 24.87 19.5292 25.2549C19.5122 25.3674 19.6212 25.4565 19.7285 25.4189C24.1086 23.8782 27.2573 19.7003 27.2573 14.8001C27.257 8.58417 22.1914 3.52924 15.9716 3.54706ZM15.7683 8.70953C19.2404 8.57513 22.1079 11.3607 22.1079 14.8034C22.1079 16.5543 21.3661 18.1351 20.1805 19.2483C20.0799 19.3427 20.0258 19.4767 20.0336 19.6144C20.0572 20.0332 20.0486 20.4402 20.0207 20.8998C20.0132 21.0222 20.1506 21.1004 20.2519 21.0314C22.2401 19.6727 23.5478 17.3881 23.5478 14.8034C23.5478 10.5478 20.0031 7.10437 15.7112 7.27075C11.7226 7.42535 8.52258 10.7139 8.4715 14.7053C8.43787 17.3303 9.7536 19.6559 11.7674 21.0316C11.8685 21.1007 12.0054 21.0224 11.9979 20.9C11.9699 20.4402 11.9614 20.0332 11.9849 19.6144C11.9927 19.4768 11.9388 19.3428 11.8384 19.2486C10.6158 18.1007 9.86499 16.4558 9.91284 14.6398C9.99701 11.444 12.5736 8.83331 15.7683 8.70953Z" fill="#FFFFFF" fill-opacity="1.000000" fill-rule="nonzero"/>
	</g>
</svg>
