<svg width="24.000000" height="24.000000" viewBox="0 0 24 24" fill="none" xmlns="http://www.w3.org/2000/svg" xmlns:xlink="http://www.w3.org/1999/xlink">
	<desc>
			Created with Pixso.
	</desc>
	<defs>
		<clipPath id="clip2_280">
			<rect id="IMAGE" width="24.000000" height="24.000000" fill="white" fill-opacity="0"/>
		</clipPath>
	</defs>
	<g clip-path="url(#clip2_280)">
		<path id="Vector" d="M7 2C4.23858 2 2 4.23877 2 7L2 17C2 19.7612 4.23858 22 7 22L17 22C19.7614 22 22 19.7612 22 17L22 7C22 4.23877 19.7614 2 17 2L7 2Z" stroke="#FFFFFF" stroke-opacity="1.000000" stroke-width="2.000000" stroke-linejoin="round"/>
		<path id="Vector" d="M15.5937 13.7988C15.2062 14.5454 14.5931 15.1514 13.8416 15.5293C13.0901 15.9077 12.2384 16.0396 11.4077 15.9058C10.5771 15.772 9.80971 15.3799 9.21479 14.7852C8.61987 14.1899 8.22768 13.4229 8.09402 12.5918C7.96035 11.7612 8.09202 10.9097 8.47028 10.1582C8.84854 9.40674 9.45414 8.79346 10.2009 8.40625C10.9477 8.01855 11.7977 7.87646 12.63 8C13.4789 8.12549 14.2648 8.52148 14.8716 9.12793C15.4785 9.73486 15.8741 10.521 16 11.3696C16.1234 12.2021 15.9812 13.0522 15.5937 13.7988Z" stroke="#FFFFFF" stroke-opacity="1.000000" stroke-width="2.000000" stroke-linejoin="round"/>
		<path id="Vector" d="M17.5 6.5L17.51 6.5" stroke="#FFFFFF" stroke-opacity="1.000000" stroke-width="2.000000" stroke-linejoin="round" stroke-linecap="round"/>
	</g>
</svg>
